<?xml version="1.0" encoding="UTF-8"?>
<svg width="24px" height="24px" viewBox="0 0 24 24" version="1.1" xmlns="http://www.w3.org/2000/svg">
    <path d="M12,2 C17.5228,2 22,6.47715 22,12 C22,17.5228 17.5228,22 12,22 C6.47715,22 2,17.5228 2,12 C2,6.47715 6.47715,2 12,2 Z M12,6.5 C10.5,6.5 9.5,7 8.5,8 C7.5,9 7,10 7,11 C7,12 7.5,13 8.5,14 L12,17.5 L15.5,14 C16.5,13 17,12 17,11 C17,10 16.5,9 15.5,8 C14.5,7 13.5,6.5 12,6.5 Z M12,8.5 C13,8.5 13.75,8.75 14.25,9.25 C14.75,9.75 15,10.5 15,11 C15,11.5 14.75,12.25 14.25,12.75 L12,15 L9.75,12.75 C9.25,12.25 9,11.5 9,11 C9,10.5 9.25,9.75 9.75,9.25 C10.25,8.75 11,8.5 12,8.5 Z" fill="currentColor"></path>
</svg>
