<?xml version="1.0" encoding="UTF-8"?>
<svg width="24px" height="24px" viewBox="0 0 24 24" version="1.1" xmlns="http://www.w3.org/2000/svg">
    <path d="M12,2 C17.5228475,2 22,6.47715250 22,12 C22,17.5228475 17.5228475,22 12,22 C6.47715250,22 2,17.5228475 2,12 C2,6.47715250 6.47715250,2 12,2 Z M12,4 C7.581722,4 4,7.581722 4,12 C4,16.418278 7.581722,20 12,20 C16.418278,20 20,16.418278 20,12 C20,7.581722 16.418278,4 12,4 Z M8.5,8.5 L15.5,8.5 C16.3284271,8.5 17,9.17157288 17,10 L17,14 C17,14.8284271 16.3284271,15.5 15.5,15.5 L8.5,15.5 C7.67157288,15.5 7,14.8284271 7,14 L7,10 C7,9.17157288 7.67157288,8.5 8.5,8.5 Z M10.5,11 L10.5,13 L13.5,13 L13.5,11 L10.5,11 Z" fill="currentColor"></path>
</svg>
