<?xml version="1.0" encoding="UTF-8"?>
<svg width="24px" height="24px" viewBox="0 0 24 24" version="1.1" xmlns="http://www.w3.org/2000/svg">
    <path d="M19,3 C20.1045695,3 21,3.89543050 21,5 L21,19 C21,20.1045695 20.1045695,21 19,21 L5,21 C3.89543050,21 3,20.1045695 3,19 L3,5 C3,3.89543050 3.89543050,3 5,3 L19,3 Z M18.5,18.5 L18.5,13.2 C18.5,11.3299662 16.9862751,9.83333333 15.1,9.83333333 C14.3366667,9.83333333 13.4,10.2 12.8333333,10.9333333 L12.8333333,10 L10.5,10 L10.5,18.5 L12.8333333,18.5 L12.8333333,13.8666667 C12.8333333,12.9866667 13.5166667,12.3 14.4,12.3 C15.2833333,12.3 15.9666667,12.9866667 15.9666667,13.8666667 L15.9666667,18.5 L18.5,18.5 Z M6.5,18.5 L8.83333333,18.5 L8.83333333,10 L6.5,10 L6.5,18.5 Z M7.66666667,6 C6.74619208,6 6,6.74619208 6,7.66666667 C6,8.58714125 6.74619208,9.33333333 7.66666667,9.33333333 C8.58714125,9.33333333 9.33333333,8.58714125 9.33333333,7.66666667 C9.33333333,6.74619208 8.58714125,6 7.66666667,6 Z" fill="currentColor"></path>
</svg>
